<?xml version="1.0" encoding="utf-8"?>
<!-- Generator: Adobe Illustrator 25.2.0, SVG Export Plug-In . SVG Version: 6.00 Build 0)  -->
<svg version="1.1" id="Layer_1" xmlns="http://www.w3.org/2000/svg" xmlns:xlink="http://www.w3.org/1999/xlink" x="0px" y="0px"
	 viewBox="0 0 18 18" style="enable-background:new 0 0 18 18;" xml:space="preserve">
<style type="text/css">
	.st0{fill:#222222;}
</style>
<path class="st0" d="M2,18l14,0c1.1,0,2-0.9,2-2l0-4l-2,0l0,4L2,16L2,2l14,0l0,4l2,0l0-4c0-1.1-0.9-2-2-2L2,0C0.9,0,0,0.9,0,2l0,14
	C0,17.1,0.9,18,2,18 M10.9,5.4L9.5,4l-5,5l5,5l1.4-1.4L8.3,10l9.7,0l0-2L8.3,8L10.9,5.4z"/>
</svg>
